<mxfile host="65bd71144e">
    <diagram id="BhuOXUAelwWcWwYgVLHv" name="Page-1">
        <mxGraphModel dx="1802" dy="2232" grid="1" gridSize="10" guides="1" tooltips="1" connect="1" arrows="1" fold="1" page="1" pageScale="1" pageWidth="850" pageHeight="1100" math="0" shadow="0">
            <root>
                <mxCell id="0"/>
                <mxCell id="1" parent="0"/>
                <mxCell id="L-pfhSX-X1KtQgtuYa56-4" value="&lt;font style=&quot;font-size: 18px&quot;&gt;&lt;b style=&quot;color: rgb(0 , 0 , 0) ; background-color: rgb(248 , 249 , 250)&quot;&gt;User&lt;/b&gt;&lt;br style=&quot;color: rgb(0 , 0 , 0) ; background-color: rgb(248 , 249 , 250)&quot;&gt;&lt;span style=&quot;color: rgb(0 , 0 , 0) ; background-color: rgb(248 , 249 , 250)&quot;&gt;-username :string&lt;/span&gt;&lt;br style=&quot;color: rgb(0 , 0 , 0) ; background-color: rgb(248 , 249 , 250)&quot;&gt;&lt;span style=&quot;color: rgb(0 , 0 , 0) ; background-color: rgb(248 , 249 , 250)&quot;&gt;-password :string&lt;/span&gt;&lt;br style=&quot;color: rgb(0 , 0 , 0) ; background-color: rgb(248 , 249 , 250)&quot;&gt;&lt;span style=&quot;color: rgb(0 , 0 , 0) ; background-color: rgb(248 , 249 , 250)&quot;&gt;-email :string&lt;/span&gt;&lt;br style=&quot;color: rgb(0 , 0 , 0) ; background-color: rgb(248 , 249 , 250)&quot;&gt;&lt;span style=&quot;color: rgb(0 , 0 , 0) ; background-color: rgb(248 , 249 , 250)&quot;&gt;-avatar_url :string&lt;/span&gt;&lt;br style=&quot;color: rgb(0 , 0 , 0) ; background-color: rgb(248 , 249 , 250)&quot;&gt;&lt;span style=&quot;color: rgb(0 , 0 , 0) ; background-color: rgb(248 , 249 , 250)&quot;&gt;-btc_address :string&lt;/span&gt;&lt;br style=&quot;color: rgb(0 , 0 , 0) ; background-color: rgb(248 , 249 , 250)&quot;&gt;&lt;span style=&quot;color: rgb(0 , 0 , 0) ; background-color: rgb(248 , 249 , 250)&quot;&gt;-eth_address :string&lt;/span&gt;&lt;br style=&quot;color: rgb(0 , 0 , 0) ; background-color: rgb(248 , 249 , 250)&quot;&gt;&lt;br style=&quot;color: rgb(0 , 0 , 0) ; background-color: rgb(248 , 249 , 250)&quot;&gt;&lt;br style=&quot;color: rgb(0 , 0 , 0) ; background-color: rgb(248 , 249 , 250)&quot;&gt;&lt;span style=&quot;color: rgb(0 , 0 , 0) ; background-color: rgb(248 , 249 , 250)&quot;&gt;-has_many&amp;nbsp;&lt;/span&gt;&lt;b style=&quot;color: rgb(0 , 0 , 0) ; background-color: rgb(248 , 249 , 250)&quot;&gt;:posts&lt;/b&gt;&lt;br style=&quot;color: rgb(0 , 0 , 0) ; background-color: rgb(248 , 249 , 250)&quot;&gt;&lt;span style=&quot;color: rgb(0 , 0 , 0) ; background-color: rgb(248 , 249 , 250)&quot;&gt;-has_many&amp;nbsp;&lt;/span&gt;&lt;b style=&quot;color: rgb(0 , 0 , 0) ; background-color: rgb(248 , 249 , 250)&quot;&gt;:comments&lt;/b&gt;&lt;span style=&quot;color: rgb(0 , 0 , 0) ; background-color: rgb(248 , 249 , 250)&quot;&gt;, -through&amp;nbsp;&lt;/span&gt;&lt;b style=&quot;color: rgb(0 , 0 , 0) ; background-color: rgb(248 , 249 , 250)&quot;&gt;:posts&lt;/b&gt;&lt;br style=&quot;color: rgb(0 , 0 , 0) ; background-color: rgb(248 , 249 , 250)&quot;&gt;&lt;br style=&quot;color: rgb(0 , 0 , 0) ; background-color: rgb(248 , 249 , 250)&quot;&gt;&lt;span style=&quot;color: rgb(0 , 0 , 0) ; background-color: rgb(248 , 249 , 250)&quot;&gt;has_many :&lt;/span&gt;&lt;b style=&quot;color: rgb(0 , 0 , 0) ; background-color: rgb(248 , 249 , 250)&quot;&gt;favorites&lt;br&gt;&lt;/b&gt;&lt;span style=&quot;color: rgb(0 , 0 , 0) ; background-color: rgb(248 , 249 , 250)&quot;&gt;has_many :&lt;/span&gt;&lt;b style=&quot;color: rgb(0 , 0 , 0) ; background-color: rgb(248 , 249 , 250)&quot;&gt;reputations&lt;/b&gt;&lt;br style=&quot;color: rgb(0 , 0 , 0) ; background-color: rgb(248 , 249 , 250)&quot;&gt;&lt;br style=&quot;color: rgb(0 , 0 , 0) ; background-color: rgb(248 , 249 , 250)&quot;&gt;&lt;i style=&quot;color: rgb(0 , 0 , 0) ; background-color: rgb(248 , 249 , 250)&quot;&gt;rails g resource User username password email avatar_url btc_address eth_address&lt;/i&gt;&lt;br&gt;&lt;/font&gt;" style="rounded=0;whiteSpace=wrap;html=1;" parent="1" vertex="1">
                    <mxGeometry x="190" y="-1030" width="490" height="440" as="geometry"/>
                </mxCell>
                <mxCell id="L-pfhSX-X1KtQgtuYa56-7" value="&lt;font style=&quot;font-size: 18px&quot;&gt;&lt;b style=&quot;color: rgb(0 , 0 , 0) ; background-color: rgb(248 , 249 , 250)&quot;&gt;Posts&lt;br&gt;&lt;/b&gt;&lt;br style=&quot;color: rgb(0 , 0 , 0) ; background-color: rgb(248 , 249 , 250)&quot;&gt;&lt;i style=&quot;color: rgb(0 , 0 , 0) ; background-color: rgb(248 , 249 , 250)&quot;&gt;(JOIN TABLE)&lt;/i&gt;&lt;br style=&quot;color: rgb(0 , 0 , 0) ; background-color: rgb(248 , 249 , 250)&quot;&gt;&lt;br style=&quot;color: rgb(0 , 0 , 0) ; background-color: rgb(248 , 249 , 250)&quot;&gt;&lt;span style=&quot;color: rgb(0 , 0 , 0) ; background-color: rgb(248 , 249 , 250)&quot;&gt;-title :string&lt;/span&gt;&lt;br style=&quot;color: rgb(0 , 0 , 0) ; background-color: rgb(248 , 249 , 250)&quot;&gt;&lt;span style=&quot;color: rgb(0 , 0 , 0) ; background-color: rgb(248 , 249 , 250)&quot;&gt;-body :string&lt;/span&gt;&lt;br style=&quot;color: rgb(0 , 0 , 0) ; background-color: rgb(248 , 249 , 250)&quot;&gt;&lt;br style=&quot;color: rgb(0 , 0 , 0) ; background-color: rgb(248 , 249 , 250)&quot;&gt;&lt;span style=&quot;color: rgb(0 , 0 , 0) ; background-color: rgb(248 , 249 , 250)&quot;&gt;-belongs_to&amp;nbsp;&lt;/span&gt;&lt;b style=&quot;color: rgb(0 , 0 , 0) ; background-color: rgb(248 , 249 , 250)&quot;&gt;:user&lt;/b&gt;&lt;b style=&quot;color: rgb(0 , 0 , 0) ; background-color: rgb(248 , 249 , 250)&quot;&gt;&lt;br&gt;&lt;/b&gt;&lt;br style=&quot;color: rgb(0 , 0 , 0) ; background-color: rgb(248 , 249 , 250)&quot;&gt;&lt;span style=&quot;color: rgb(0 , 0 , 0) ; background-color: rgb(248 , 249 , 250)&quot;&gt;-has_many&amp;nbsp;&lt;/span&gt;&lt;b style=&quot;color: rgb(0 , 0 , 0) ; background-color: rgb(248 , 249 , 250)&quot;&gt;:comments&lt;/b&gt;&lt;span style=&quot;color: rgb(0 , 0 , 0) ; background-color: rgb(248 , 249 , 250)&quot;&gt;, through :&lt;/span&gt;&lt;b style=&quot;color: rgb(0 , 0 , 0) ; background-color: rgb(248 , 249 , 250)&quot;&gt;users&lt;/b&gt;&lt;b style=&quot;color: rgb(0 , 0 , 0) ; background-color: rgb(248 , 249 , 250)&quot;&gt;&lt;br&gt;&lt;/b&gt;&lt;br style=&quot;color: rgb(0 , 0 , 0) ; background-color: rgb(248 , 249 , 250)&quot;&gt;&lt;i style=&quot;color: rgb(0 , 0 , 0) ; background-color: rgb(248 , 249 , 250)&quot;&gt;rails g resource Post title body user:belongs_to&lt;/i&gt;&lt;br&gt;&lt;/font&gt;" style="rounded=0;whiteSpace=wrap;html=1;" parent="1" vertex="1">
                    <mxGeometry x="890" y="-420" width="350" height="350" as="geometry"/>
                </mxCell>
                <mxCell id="L-pfhSX-X1KtQgtuYa56-8" value="&lt;font&gt;&lt;font style=&quot;color: rgb(0 , 0 , 0) ; font-size: 18px ; background-color: rgb(248 , 249 , 250)&quot;&gt;&lt;b&gt;Comments&lt;/b&gt;&lt;b&gt;&lt;br&gt;&lt;/b&gt;&lt;br&gt;(JOIN TABLE)&lt;br&gt;&lt;br&gt;-content :string&lt;br&gt;&lt;br&gt;&lt;b&gt;-&lt;/b&gt;belongs_to&amp;nbsp;&lt;b&gt;:user&lt;/b&gt;&lt;br&gt;&lt;b&gt;&amp;nbsp;&lt;/b&gt;-belongs_to&amp;nbsp;&lt;b&gt;:posts&lt;br&gt;&lt;/b&gt;&lt;/font&gt;&lt;br style=&quot;color: rgb(0 , 0 , 0) ; font-size: 18px ; background-color: rgb(248 , 249 , 250)&quot;&gt;&lt;i style=&quot;color: rgb(0 , 0 , 0) ; font-size: 18px ; background-color: rgb(248 , 249 , 250)&quot;&gt;rails g resource Comment content user:belongs_to post:belongs_to&lt;/i&gt;&lt;br&gt;&lt;/font&gt;" style="rounded=0;whiteSpace=wrap;html=1;" parent="1" vertex="1">
                    <mxGeometry x="90" y="-330" width="430" height="300" as="geometry"/>
                </mxCell>
                <mxCell id="L-pfhSX-X1KtQgtuYa56-11" value="" style="endArrow=classic;startArrow=classic;html=1;rounded=0;fontSize=18;entryX=0.665;entryY=0.999;entryDx=0;entryDy=0;exitX=0;exitY=0.25;exitDx=0;exitDy=0;entryPerimeter=0;" parent="1" source="L-pfhSX-X1KtQgtuYa56-7" target="L-pfhSX-X1KtQgtuYa56-4" edge="1">
                    <mxGeometry width="50" height="50" relative="1" as="geometry">
                        <mxPoint x="450" y="480" as="sourcePoint"/>
                        <mxPoint x="500" y="430" as="targetPoint"/>
                    </mxGeometry>
                </mxCell>
                <mxCell id="L-pfhSX-X1KtQgtuYa56-12" value="" style="endArrow=classic;startArrow=classic;html=1;rounded=0;fontSize=18;entryX=0;entryY=0.697;entryDx=0;entryDy=0;entryPerimeter=0;exitX=1.012;exitY=0.434;exitDx=0;exitDy=0;exitPerimeter=0;" parent="1" source="L-pfhSX-X1KtQgtuYa56-8" target="L-pfhSX-X1KtQgtuYa56-7" edge="1">
                    <mxGeometry width="50" height="50" relative="1" as="geometry">
                        <mxPoint x="410" y="610" as="sourcePoint"/>
                        <mxPoint x="460" y="560" as="targetPoint"/>
                    </mxGeometry>
                </mxCell>
                <mxCell id="L-pfhSX-X1KtQgtuYa56-13" value="" style="endArrow=classic;startArrow=classic;html=1;rounded=0;fontSize=18;exitX=0.5;exitY=0;exitDx=0;exitDy=0;entryX=0.354;entryY=0.999;entryDx=0;entryDy=0;entryPerimeter=0;" parent="1" source="L-pfhSX-X1KtQgtuYa56-8" target="L-pfhSX-X1KtQgtuYa56-4" edge="1">
                    <mxGeometry width="50" height="50" relative="1" as="geometry">
                        <mxPoint x="220" y="480" as="sourcePoint"/>
                        <mxPoint x="270" y="430" as="targetPoint"/>
                    </mxGeometry>
                </mxCell>
                <mxCell id="L-pfhSX-X1KtQgtuYa56-20" value="&lt;font style=&quot;font-size: 18px&quot;&gt;&lt;b style=&quot;color: rgb(0 , 0 , 0) ; background-color: rgb(248 , 249 , 250)&quot;&gt;Favorites&lt;/b&gt;&lt;br style=&quot;color: rgb(0 , 0 , 0) ; background-color: rgb(248 , 249 , 250)&quot;&gt;&lt;span style=&quot;color: rgb(0 , 0 , 0) ; background-color: rgb(248 , 249 , 250)&quot;&gt;token :string&lt;/span&gt;&lt;br style=&quot;color: rgb(0 , 0 , 0) ; background-color: rgb(248 , 249 , 250)&quot;&gt;&lt;br style=&quot;color: rgb(0 , 0 , 0) ; background-color: rgb(248 , 249 , 250)&quot;&gt;&lt;span style=&quot;color: rgb(0 , 0 , 0) ; background-color: rgb(248 , 249 , 250)&quot;&gt;belongs_to :user&lt;/span&gt;&lt;br style=&quot;color: rgb(0 , 0 , 0) ; background-color: rgb(248 , 249 , 250)&quot;&gt;&lt;br style=&quot;color: rgb(0 , 0 , 0) ; background-color: rgb(248 , 249 , 250)&quot;&gt;&lt;i style=&quot;color: rgb(0 , 0 , 0) ; background-color: rgb(248 , 249 , 250)&quot;&gt;rails g resource favorite token user:belongs_to&lt;/i&gt;&lt;br&gt;&lt;/font&gt;" style="rounded=0;whiteSpace=wrap;html=1;" parent="1" vertex="1">
                    <mxGeometry x="970" y="-1030" width="270" height="240" as="geometry"/>
                </mxCell>
                <mxCell id="L-pfhSX-X1KtQgtuYa56-21" value="" style="endArrow=classic;html=1;rounded=0;fontSize=18;exitX=1;exitY=0.25;exitDx=0;exitDy=0;entryX=0;entryY=0.5;entryDx=0;entryDy=0;" parent="1" source="L-pfhSX-X1KtQgtuYa56-4" target="L-pfhSX-X1KtQgtuYa56-20" edge="1">
                    <mxGeometry width="50" height="50" relative="1" as="geometry">
                        <mxPoint x="570" y="-620" as="sourcePoint"/>
                        <mxPoint x="620" y="-670" as="targetPoint"/>
                    </mxGeometry>
                </mxCell>
                <mxCell id="2" value="&lt;font style=&quot;font-size: 18px&quot;&gt;&lt;b style=&quot;color: rgb(0 , 0 , 0) ; background-color: rgb(248 , 249 , 250)&quot;&gt;Reputation&lt;br&gt;&lt;/b&gt;&lt;br style=&quot;color: rgb(0 , 0 , 0) ; background-color: rgb(248 , 249 , 250)&quot;&gt;&lt;span style=&quot;color: rgb(0 , 0 , 0) ; background-color: rgb(248 , 249 , 250)&quot;&gt;belongs_to :user&lt;/span&gt;&lt;br style=&quot;color: rgb(0 , 0 , 0) ; background-color: rgb(248 , 249 , 250)&quot;&gt;&lt;br style=&quot;color: rgb(0 , 0 , 0) ; background-color: rgb(248 , 249 , 250)&quot;&gt;&lt;span style=&quot;color: rgb(0 , 0 , 0) ; background-color: rgb(248 , 249 , 250)&quot;&gt;rails g resource reputation user:belongs_to&lt;/span&gt;&lt;br&gt;&lt;/font&gt;" style="rounded=0;whiteSpace=wrap;html=1;" vertex="1" parent="1">
                    <mxGeometry x="970" y="-720" width="270" height="200" as="geometry"/>
                </mxCell>
                <mxCell id="3" value="" style="endArrow=classic;html=1;rounded=0;fontSize=18;entryX=-0.015;entryY=0.475;entryDx=0;entryDy=0;entryPerimeter=0;exitX=1;exitY=0.633;exitDx=0;exitDy=0;exitPerimeter=0;" edge="1" parent="1" source="L-pfhSX-X1KtQgtuYa56-4" target="2">
                    <mxGeometry width="50" height="50" relative="1" as="geometry">
                        <mxPoint x="710" y="-567" as="sourcePoint"/>
                        <mxPoint x="900" y="-640" as="targetPoint"/>
                    </mxGeometry>
                </mxCell>
            </root>
        </mxGraphModel>
    </diagram>
</mxfile>